<svg width="238" height="238" viewBox="0 0 238 238" fill="none" xmlns="http://www.w3.org/2000/svg">
<g clip-path="url(#clip0_4_255)">
<path d="M95.9338 32.2624L72.6507 46.0685L78.0209 78.0209L46.0685 72.6507L32.2622 95.934L31.3176 145.869L69.9718 155.493L74.4966 141.796L144.578 211.878L211.877 144.579L141.796 74.4973L155.492 69.9725L145.869 31.318L95.9338 32.2624ZM62.9875 143.413L41.6868 138.109L42.4184 99.4346L51.6764 83.8213L145.93 99.6629L96.1021 149.491L69.7016 123.09L62.9875 143.413ZM144.063 197.452L103.573 156.962L119.603 140.932L151.378 172.707L158.333 165.752L126.558 133.977L133.977 126.558L153.301 145.882L160.256 138.927L140.932 119.603L156.962 103.573L197.452 144.063L144.063 197.452ZM143.413 62.9875L123.09 69.7015L142.195 88.807L88.5465 79.7899L83.8213 51.6764L99.4344 42.4186L138.109 41.6868L143.413 62.9875Z" fill="white"/>
</g>
<defs>
<clipPath id="clip0_4_255">
<rect width="162" height="174" fill="white" transform="translate(0 114.551) rotate(-45)"/>
</clipPath>
</defs>
</svg>
